<svg xmlns="http://www.w3.org/2000/svg" width="106" height="19" viewBox="0 0 106 19" fill="none">
<path d="M105.691 1.19727L105.527 2.83789H101.848V17.8379H100.289V2.83789H97.418V1.15039L105.691 1.19727Z" fill="#283618"/>
<path d="M95.2266 18.1191L94.6523 14.9785C94.2773 14.9629 93.9062 14.9512 93.5391 14.9434C93.1719 14.9355 92.8008 14.9316 92.4258 14.9316C92.0273 14.9316 91.625 14.9355 91.2188 14.9434C90.8125 14.9512 90.4062 14.9629 90 14.9785C89.8984 15.5098 89.8008 16.0332 89.707 16.5488C89.6211 17.0645 89.5352 17.5801 89.4492 18.0957L87.2578 18.1191C87.6016 16.7363 87.9219 15.3418 88.2188 13.9355C88.5234 12.5293 88.8164 11.1191 89.0977 9.70508C89.3789 8.29102 89.6562 6.87695 89.9297 5.46289C90.2031 4.04883 90.4805 2.64648 90.7617 1.25586L93.7852 1.19727C94.3477 4.01758 94.9375 6.84961 95.5547 9.69336C96.1797 12.5371 96.8555 15.3457 97.582 18.1191H95.2266ZM92.3555 3.3418C91.9805 4.99023 91.625 6.64648 91.2891 8.31055C90.9531 9.9668 90.625 11.6309 90.3047 13.3027C90.6484 13.3184 90.9883 13.3223 91.3242 13.3145C91.6602 13.3066 92.0039 13.3027 92.3555 13.3027C92.6914 13.3027 93.0195 13.3066 93.3398 13.3145C93.6602 13.3223 93.9844 13.3184 94.3125 13.3027C94 11.623 93.6836 9.95508 93.3633 8.29883C93.043 6.64258 92.707 4.99023 92.3555 3.3418Z" fill="#283618"/>
<path d="M87.5273 1.19727L87.3633 2.83789H83.6836V17.8379H82.125V2.83789H79.2539V1.15039L87.5273 1.19727Z" fill="#283618"/>
<path d="M78.2227 17.7676H73.0898L73.1133 15.9395C73.3633 15.9551 73.6133 15.9668 73.8633 15.9746C74.1133 15.9824 74.3594 15.9863 74.6016 15.9863C74.6406 14.416 74.668 12.8457 74.6836 11.2754C74.707 9.70508 74.7188 8.12305 74.7188 6.5293C74.7188 5.9043 74.7188 5.2793 74.7188 4.6543C74.7188 4.0293 74.7109 3.40039 74.6953 2.76758L73.207 2.97852L73.0898 0.869141C73.5586 0.884766 74.0273 0.892578 74.4961 0.892578C74.9648 0.892578 75.4336 0.892578 75.9023 0.892578C76.3633 0.892578 76.8203 0.892578 77.2734 0.892578C77.7344 0.892578 78.1953 0.884766 78.6562 0.869141L78.6328 2.4043C78.3672 2.41992 78.1016 2.43945 77.8359 2.46289C77.5781 2.47852 77.3164 2.49805 77.0508 2.52148C76.8789 4.7793 76.7227 7.02539 76.582 9.25977C76.4492 11.4863 76.332 13.7285 76.2305 15.9863C76.5742 15.9863 76.9062 15.9785 77.2266 15.9629C77.5547 15.9395 77.8867 15.9082 78.2227 15.8691V17.7676Z" fill="#283618"/>
<path d="M72.0352 6.43555C71.9727 7.06055 71.793 7.67383 71.4961 8.27539C71.3711 8.5332 71.2109 8.80273 71.0156 9.08398C70.8281 9.35742 70.5977 9.63086 70.3242 9.9043C70.0586 10.1777 69.7461 10.4434 69.3867 10.7012C69.0273 10.9512 68.6133 11.1855 68.1445 11.4043C68.668 11.4668 69.1133 11.584 69.4805 11.7559C69.8477 11.9277 70.1523 12.127 70.3945 12.3535C70.6367 12.5801 70.8242 12.8184 70.957 13.0684C71.0977 13.3105 71.1992 13.541 71.2617 13.7598C71.3242 13.9707 71.3633 14.1543 71.3789 14.3105C71.3945 14.4668 71.4023 14.5605 71.4023 14.5918C71.4023 15.0762 71.3125 15.502 71.1328 15.8691C70.9531 16.2285 70.7188 16.5449 70.4297 16.8184C70.1484 17.084 69.8281 17.3066 69.4688 17.4863C69.1094 17.666 68.75 17.8105 68.3906 17.9199C68.0312 18.0293 67.6875 18.1074 67.3594 18.1543C67.0312 18.2012 66.7578 18.2246 66.5391 18.2246C66.4844 18.2246 66.3633 18.2207 66.1758 18.2129C65.9883 18.2051 65.7422 18.1816 65.4375 18.1426C65.1328 18.1113 64.7734 18.0605 64.3594 17.9902C63.9453 17.9277 63.4883 17.8379 62.9883 17.7207V1.39648C63.3008 1.25586 63.6367 1.14648 63.9961 1.06836C64.3633 0.982422 64.7188 0.919922 65.0625 0.880859C65.4141 0.833984 65.7422 0.806641 66.0469 0.798828C66.3516 0.783203 66.6016 0.775391 66.7969 0.775391C67.5078 0.775391 68.1797 0.876953 68.8125 1.08008C69.4531 1.27539 70.0117 1.5957 70.4883 2.04102C70.9648 2.48633 71.3398 3.07227 71.6133 3.79883C71.8945 4.51758 72.0352 5.39648 72.0352 6.43555ZM69.75 6.02539C69.7266 5.31445 69.5898 4.68164 69.3398 4.12695C69.2305 3.89258 69.0938 3.66211 68.9297 3.43555C68.7734 3.20117 68.5742 2.99414 68.332 2.81445C68.0898 2.63477 67.8047 2.49023 67.4766 2.38086C67.1562 2.27148 66.7852 2.2168 66.3633 2.2168C66.1836 2.2168 65.9961 2.22461 65.8008 2.24023C65.6133 2.25586 65.4102 2.28711 65.1914 2.33398V11.6621C65.7539 11.5371 66.25 11.3613 66.6797 11.1348C67.1094 10.9004 67.4844 10.6426 67.8047 10.3613C68.125 10.0723 68.3945 9.76367 68.6133 9.43555C68.8398 9.10742 69.0234 8.7832 69.1641 8.46289C69.5 7.71289 69.6953 6.90039 69.75 6.02539ZM66.5859 12.4355C66.3672 12.4355 66.1406 12.4473 65.9062 12.4707C65.6797 12.4863 65.4414 12.5137 65.1914 12.5527V16.7598C65.418 16.8066 65.6562 16.8457 65.9062 16.877C66.1562 16.9082 66.4062 16.9238 66.6562 16.9238C67.0234 16.9238 67.375 16.8848 67.7109 16.8066C68.0547 16.7285 68.3594 16.5918 68.625 16.3965C68.8906 16.2012 69.1016 15.9434 69.2578 15.623C69.4141 15.2949 69.4922 14.8887 69.4922 14.4043C69.4609 14.0371 69.3398 13.709 69.1289 13.4199C69.0352 13.2949 68.918 13.1738 68.7773 13.0566C68.6445 12.9395 68.4727 12.834 68.2617 12.7402C68.0586 12.6465 67.8164 12.5723 67.5352 12.5176C67.2617 12.4629 66.9453 12.4355 66.5859 12.4355Z" fill="#283618"/>
<path d="M59.2969 18.1191L58.7227 14.9785C58.3477 14.9629 57.9766 14.9512 57.6094 14.9434C57.2422 14.9355 56.8711 14.9316 56.4961 14.9316C56.0977 14.9316 55.6953 14.9355 55.2891 14.9434C54.8828 14.9512 54.4766 14.9629 54.0703 14.9785C53.9688 15.5098 53.8711 16.0332 53.7773 16.5488C53.6914 17.0645 53.6055 17.5801 53.5195 18.0957L51.3281 18.1191C51.6719 16.7363 51.9922 15.3418 52.2891 13.9355C52.5938 12.5293 52.8867 11.1191 53.168 9.70508C53.4492 8.29102 53.7266 6.87695 54 5.46289C54.2734 4.04883 54.5508 2.64648 54.832 1.25586L57.8555 1.19727C58.418 4.01758 59.0078 6.84961 59.625 9.69336C60.25 12.5371 60.9258 15.3457 61.6523 18.1191H59.2969ZM56.4258 3.3418C56.0508 4.99023 55.6953 6.64648 55.3594 8.31055C55.0234 9.9668 54.6953 11.6309 54.375 13.3027C54.7188 13.3184 55.0586 13.3223 55.3945 13.3145C55.7305 13.3066 56.0742 13.3027 56.4258 13.3027C56.7617 13.3027 57.0898 13.3066 57.4102 13.3145C57.7305 13.3223 58.0547 13.3184 58.3828 13.3027C58.0703 11.623 57.7539 9.95508 57.4336 8.29883C57.1133 6.64258 56.7773 4.99023 56.4258 3.3418Z" fill="#283618"/>
<path d="M43.6289 1.17383C43.4414 4.57227 43.3008 7.94336 43.207 11.2871L47.7656 11.1582C47.8125 7.7832 47.8359 4.39258 47.8359 0.986328L50.4727 1.00977C50.2461 3.79102 50.043 6.58008 49.8633 9.37695C49.6836 12.1738 49.543 14.9707 49.4414 17.7676H47.6133L47.7188 13.0566H43.1484C43.1016 14.6191 43.0781 16.1738 43.0781 17.7207L41.2617 17.7441C41.2617 14.9473 41.25 12.1738 41.2266 9.42383C41.2031 6.66602 41.1641 3.90039 41.1094 1.12695L43.6289 1.17383Z" fill="#283618"/>
<path d="M33.9375 1.2793V2.88477H27.5039V10.0332H32.5898V11.7676H27.4336V16.0098H33.668V17.8613H25.4414V1.2793H33.9375Z" fill="#283618"/>
<path d="M23.8008 1.30273V2.9082H17.4961V10.0332H22.582V11.7676H17.3906V17.8848H15.5273V1.30273H23.8008Z" fill="#283618"/>
<path d="M13.4648 17.7676H8.33203L8.35547 15.9395C8.60547 15.9551 8.85547 15.9668 9.10547 15.9746C9.35547 15.9824 9.60156 15.9863 9.84375 15.9863C9.88281 14.416 9.91016 12.8457 9.92578 11.2754C9.94922 9.70508 9.96094 8.12305 9.96094 6.5293C9.96094 5.9043 9.96094 5.2793 9.96094 4.6543C9.96094 4.0293 9.95312 3.40039 9.9375 2.76758L8.44922 2.97852L8.33203 0.869141C8.80078 0.884766 9.26953 0.892578 9.73828 0.892578C10.207 0.892578 10.6758 0.892578 11.1445 0.892578C11.6055 0.892578 12.0625 0.892578 12.5156 0.892578C12.9766 0.892578 13.4375 0.884766 13.8984 0.869141L13.875 2.4043C13.6094 2.41992 13.3438 2.43945 13.0781 2.46289C12.8203 2.47852 12.5586 2.49805 12.293 2.52148C12.1211 4.7793 11.9648 7.02539 11.8242 9.25977C11.6914 11.4863 11.5742 13.7285 11.4727 15.9863C11.8164 15.9863 12.1484 15.9785 12.4688 15.9629C12.7969 15.9395 13.1289 15.9082 13.4648 15.8691V17.7676Z" fill="#283618"/>
<path d="M7.55859 17.8379L0.152344 18.0957C0.167969 17.1582 0.179688 16.2207 0.1875 15.2832C0.195312 14.3457 0.199219 13.4043 0.199219 12.459C0.199219 10.5605 0.179688 8.67773 0.140625 6.81055C0.109375 4.93555 0.0625 3.04883 0 1.15039L2.8125 1.0332C2.72656 2.47852 2.64844 3.8418 2.57812 5.12305C2.51562 6.4043 2.45703 7.65039 2.40234 8.86133C2.35547 10.0645 2.3125 11.2559 2.27344 12.4355C2.23438 13.6074 2.19922 14.8066 2.16797 16.0332C2.57422 16.0566 2.98438 16.0723 3.39844 16.0801C3.8125 16.0801 4.22656 16.0801 4.64062 16.0801C5.60156 16.0801 6.57422 16.0566 7.55859 16.0098V17.8379Z" fill="#283618"/>
</svg>